<?xml version="1.0" encoding="utf-8"?>
<!-- Generator: Adobe Illustrator 24.2.2, SVG Export Plug-In . SVG Version: 6.00 Build 0)  -->
<svg version="1.1" id="Layer_1" xmlns="http://www.w3.org/2000/svg" xmlns:xlink="http://www.w3.org/1999/xlink" x="0px" y="0px"
	 width="504.1px" height="504.1px" viewBox="0 0 504.1 504.1" style="enable-background:new 0 0 504.1 504.1;" xml:space="preserve"
	>
<style type="text/css">
	.st0{fill:#2A3849;}
	.st1{opacity:0.89;fill:#222E3D;}
	.st2{fill:#FF4500;}
	.st3{fill:#D83A09;}
	.st4{fill:#AD310B;}
	.st5{opacity:0.36;fill:#222E3D;}
	.st6{opacity:0.3;fill:#222E3D;}
	.st7{fill:#7FFFD4;}
	.st8{fill:#66D1AA;}
	.st9{fill:#A82902;}
</style>
<path class="st0" d="M386,131.9V53.2h1.2c10.2,0,18.5-7.9,18.5-17.7s-8.3-17.7-18.5-17.7H258.8c-10.2,0-18.5,7.9-18.5,17.7
	s8.3,17.7,18.5,17.7h1.2v77.6c-71.3,24.8-122.1,92.9-122.1,172.5c0,101.2,81.9,183.1,183.1,183.1s183.1-81.9,183.1-183.1
	C504.1,224.9,454.9,158.3,386,131.9z"/>
<path class="st1" d="M323,68.9h-63v61.4c-71.3,25.2-122.1,93.3-122.1,172.9c0,101.2,81.9,183.1,183.1,183.1h2V68.9z"/>
<path class="st2" d="M291.8,267.8c72.5,0,156-67,176.4,0.4c3.5,11.4,4.3,23.6,4.3,36.2c0,85.5-68.9,154.8-153.6,154.8
	s-153.6-69.3-153.6-154.8c0-18.1,3.2-35.4,8.7-52C188.3,215.4,224.9,267.8,291.8,267.8z"/>
<path class="st3" d="M323,264.3c-10.6,2-20.9,3.5-31.1,3.5c-67,0-103.6-52.4-117.8-15.4c-5.9,16.1-8.7,33.5-8.7,52
	c0,85.5,68.9,154.8,153.6,154.8h3.9C323,459.2,323,264.3,323,264.3z"/>
<path class="st4" d="M356.4,364.3c-14.2,0-25.6,11.4-25.6,25.6s11.4,25.6,25.6,25.6s25.6-11.4,25.6-25.6
	C382,375.7,370.6,364.3,356.4,364.3z M360.4,328.9c7.5,0,13.8-6.3,13.8-13.8s-6.3-13.8-13.8-13.8s-13.8,6.3-13.8,13.8
	S352.9,328.9,360.4,328.9z M411.6,324.9c-9.8,0-17.7,7.9-17.7,17.7s7.9,17.7,17.7,17.7c9.8,0,17.7-7.9,17.7-17.7
	S421.4,324.9,411.6,324.9z M423.4,269.8c-7.5,0-13.8,6.3-13.8,13.8s6.3,13.8,13.8,13.8s13.8-6.3,13.8-13.8
	C437.2,276.1,430.9,269.8,423.4,269.8z"/>
<path class="st5" d="M259.9,53.2h126V69h-126V53.2z"/>
<path class="st0" d="M196.9,17.7H15.8C7.1,17.7,0,24.8,0,33.5v3.9c0,8.7,7.1,15.8,15.8,15.8v343c0,50,40.6,90.2,90.6,90.2
	s90.6-40.6,90.6-90.2v-343c8.7,0,15.8-7.1,15.8-15.8v-3.9C212.7,24.8,205.6,17.7,196.9,17.7z"/>
<path class="st6" d="M15.8,53.2H197V69H15.8V53.2z"/>
<path class="st7" d="M133.1,135.9c19.3,0,35.8,9.1,35.8,9.1v251.3c0,34.7-28.4,62.6-63,62.6s-63-28-63-62.6V144.9
	c0,0,16.1,9.1,35.8,9.1S114.6,135.9,133.1,135.9z"/>
<path class="st8" d="M94.5,254c-13,0-23.6,10.6-23.6,23.6s10.6,23.6,23.6,23.6s23.6-10.6,23.6-23.6C118.2,264.7,107.5,254,94.5,254z
	 M131.9,234.3c7.5,0,13.8-6.3,13.8-13.8s-6.3-13.8-13.8-13.8s-13.8,6.3-13.8,13.8S124.5,234.3,131.9,234.3z M131.9,324.9
	c-9.8,0-17.7,7.9-17.7,17.7s7.9,17.7,17.7,17.7s17.7-7.9,17.7-17.7S141.8,324.9,131.9,324.9z M86.6,372.2c-6.7,0-11.8,5.1-11.8,11.8
	s5.1,11.8,11.8,11.8s11.8-5.1,11.8-11.8C98.5,377.7,92.9,372.2,86.6,372.2z"/>
<ellipse class="st9" cx="271.8" cy="328.9" rx="31.5" ry="31.5"/>
</svg>
