<?xml version="1.0" encoding="utf-8"?>
<!-- Generator: Adobe Illustrator 24.2.2, SVG Export Plug-In . SVG Version: 6.00 Build 0)  -->
<svg version="1.1" id="Ebene_1" xmlns="http://www.w3.org/2000/svg" xmlns:xlink="http://www.w3.org/1999/xlink" x="0px" y="0px"
	 width="493px" height="207px" viewBox="0 0 493 207" style="enable-background:new 0 0 493 207;" xml:space="preserve">
<style type="text/css">
	.st0{fill:#1B2431;stroke:#85B8A4;stroke-width:4;stroke-miterlimit:10;}
	.st1{fill:#85B8A4;}
	.st2{fill:#FFFFFF;}
	.st3{fill:#1B2431;}
</style>
<g>
	<path class="st0" d="M83.1,14.8c-33.7,0.3-61,27.7-61,61.5c0,45.8,53,100.6,61,108.5c8-8,61-62.7,61-108.5
		C144.1,42.4,116.9,15,83.1,14.8z"/>
	<circle class="st1" cx="83.1" cy="75.7" r="49"/>
	<g>
		<path class="st0" d="M96.9,112.3c-3,1.8-5.7,2.6-8.1,2.3c-2.4-0.3-4.8-1.7-7.3-4.2l-8.7-8.7c-1.3-1.3-2.4-2.2-3.3-2.6
			c-0.9-0.5-1.9-0.5-3-0.3c-1.1,0.3-2.4,1.1-3.9,2.4l-5.1-5.1c1.3-1.5,2.1-2.8,2.4-3.9c0.3-1.1,0.2-2.1-0.3-3
			c-0.5-0.9-1.3-2-2.6-3.3l-8.7-8.7c-2.5-2.5-3.9-4.9-4.2-7.3c-0.3-2.4,0.4-5,2.3-8.1c1.8-3,5-6.8,9.4-11.4l7,7
			c-1.5,1.7-2.5,3.1-3.1,4.2c-0.5,1.1-0.4,2,0.4,2.8l9.8,9.8c2.3,2.3,3.3,4.7,3,7.1c-0.3,2.4-1.4,5-3.3,7.8c2.8-1.9,5.3-3,7.8-3.3
			c2.4-0.3,4.8,0.7,7.1,3l9.8,9.8c0.9,0.9,1.8,1,2.9,0.4c1.1-0.6,2.5-1.6,4.1-3.1l7,7C103.7,107.4,99.9,110.5,96.9,112.3z"/>
		<path class="st0" d="M103.9,93.3c1.5-1.6,2.5-3,3.1-4.1c0.5-1.1,0.4-2-0.5-2.9l-9.8-9.8c-2.3-2.3-3.3-4.7-3-7.1
			c0.3-2.5,1.4-5.1,3.3-7.8c-2.8,2-5.4,3.1-7.8,3.4c-2.4,0.3-4.8-0.8-7.1-3.1l-9.8-9.8c-0.8-0.8-1.8-1-2.8-0.4
			c-1.1,0.5-2.5,1.5-4.1,3l-7-7c4.6-4.4,8.4-7.6,11.4-9.4c3-1.8,5.7-2.6,8-2.2c2.4,0.3,4.8,1.7,7.3,4.2l8.7,8.7
			c1.9,1.9,3.5,2.9,4.9,3c1.4,0.1,3.2-0.7,5.3-2.5l5.1,5.1c-1.8,2.2-2.7,4-2.5,5.3c0.1,1.4,1.1,3,3,4.9l8.7,8.7
			c2.5,2.5,3.9,4.9,4.2,7.3c0.3,2.4-0.4,5.1-2.2,8c-1.8,3-4.9,6.8-9.4,11.4L103.9,93.3z"/>
	</g>
	<g>
		<g>
			<path class="st2" d="M179.6,93.9v22h-12.5V54.6h22.2c6.4,0,11.4,1.8,15.1,5.4c3.7,3.6,5.5,8.4,5.5,14.2c0,5.9-1.8,10.6-5.5,14.2
				c-3.7,3.6-8.7,5.4-15,5.4H179.6z M179.6,84.3h9.7c2.7,0,4.7-0.9,6.1-2.8c1.4-1.9,2.1-4.3,2.1-7.2c0-2.9-0.7-5.3-2.1-7.3
				c-1.4-1.9-3.4-2.9-6.1-2.9h-9.7V84.3z"/>
			<path class="st2" d="M251.7,89h-21.4v17.3h25.2v9.6h-37.7V54.6h37.6v9.6h-25.1v15.3h21.4V89z"/>
			<path class="st2" d="M274.4,93.9v22h-12.5V54.6h22.2c6.4,0,11.4,1.8,15.1,5.4c3.7,3.6,5.5,8.4,5.5,14.2c0,5.9-1.8,10.6-5.5,14.2
				c-3.7,3.6-8.7,5.4-15,5.4H274.4z M274.4,84.3h9.7c2.7,0,4.7-0.9,6.1-2.8c1.4-1.9,2.1-4.3,2.1-7.2c0-2.9-0.7-5.3-2.1-7.3
				c-1.4-1.9-3.4-2.9-6.1-2.9h-9.7V84.3z"/>
			<path class="st2" d="M325.7,115.9h-12.4V54.6h12.4V115.9z"/>
			<path class="st2" d="M364.4,99.9c0-2.4-0.6-4.3-1.9-5.7c-1.3-1.4-3.5-2.8-6.8-4.1c-6.6-2.2-11.6-4.7-14.9-7.6
				c-3.3-2.8-5-6.8-5-11.8c0-5,1.9-9.1,5.8-12.3c3.9-3.2,8.8-4.7,14.8-4.7c6.1,0,11,1.8,14.8,5.3c3.8,3.5,5.6,8,5.5,13.3l-0.1,0.3
				h-12.1c0-2.8-0.7-5.1-2.2-6.8c-1.5-1.7-3.5-2.6-6.2-2.6c-2.5,0-4.4,0.7-5.8,2.2c-1.4,1.4-2.1,3.3-2.1,5.4c0,2,0.8,3.7,2.3,5
				c1.5,1.3,4.2,2.8,8.1,4.4c6,2,10.6,4.5,13.6,7.5c3.1,3,4.6,7.1,4.6,12.2c0,5.3-1.8,9.5-5.5,12.5c-3.7,3-8.6,4.5-14.7,4.5
				c-6.1,0-11.3-1.7-15.8-5.1c-4.5-3.4-6.6-8.3-6.5-14.7l0.1-0.3h12.1c0,3.8,0.8,6.5,2.5,8.2c1.7,1.7,4.2,2.5,7.5,2.5
				c2.6,0,4.6-0.7,5.8-2C363.7,104,364.4,102.2,364.4,99.9z"/>
			<path class="st2" d="M422.1,64.2h-14.4v51.7h-12.4V64.2h-14.3v-9.6h41.1V64.2z"/>
			<path class="st2" d="M469.9,93.9c0,7.2-2,12.8-6.1,16.8c-4.1,4-9.5,6.1-16.2,6.1c-6.7,0-12.1-2-16.2-6.1c-4-4-6-9.6-6-16.8V76.7
				c0-7.2,2-12.8,6-16.9c4-4.1,9.4-6.1,16.1-6.1c6.7,0,12.1,2,16.2,6.1c4.1,4.1,6.1,9.7,6.1,16.9V93.9z M457.5,76.6
				c0-4.4-0.8-7.7-2.5-9.9c-1.7-2.2-4.2-3.4-7.4-3.4c-3.3,0-5.7,1.1-7.4,3.3c-1.6,2.2-2.5,5.5-2.5,10v17.3c0,4.4,0.8,7.8,2.5,10
				c1.7,2.2,4.1,3.3,7.4,3.3c3.2,0,5.7-1.1,7.4-3.3c1.7-2.2,2.5-5.6,2.5-10V76.6z"/>
		</g>
	</g>
	<g>
		<path class="st2" d="M186.6,145.7l0.1,0.1c0,3.6-0.8,6.3-2.6,8.1c-1.7,1.8-4.3,2.7-7.7,2.7c-3.4,0-6.1-1-8.1-3.1s-3-5-3-8.8V135
			c0-3.8,1-6.7,2.9-8.8c2-2.1,4.6-3.1,7.9-3.1c3.5,0,6.1,0.9,7.9,2.8c1.8,1.9,2.7,4.6,2.8,8.3l-0.1,0.1h-6.2
			c0.1-2.2-0.2-3.7-0.9-4.7c-0.7-0.9-1.9-1.4-3.5-1.4c-1.4,0-2.5,0.6-3.3,1.7c-0.8,1.1-1.1,2.8-1.1,5.1v9.8c0,2.3,0.4,4,1.2,5.2
			c0.8,1.1,2,1.7,3.6,1.7c1.5,0,2.6-0.4,3.2-1.3c0.6-0.9,0.9-2.4,0.8-4.6H186.6z"/>
		<path class="st2" d="M212.6,144.5c0,3.8-1,6.8-3.1,9c-2.1,2.2-4.9,3.2-8.3,3.2c-3.5,0-6.2-1.1-8.3-3.2c-2.1-2.2-3.1-5.2-3.1-9
			v-9.2c0-3.8,1-6.8,3.1-9c2.1-2.2,4.8-3.3,8.3-3.3c3.5,0,6.2,1.1,8.3,3.3c2.1,2.2,3.2,5.2,3.2,9V144.5z M206.2,135.2
			c0-2.3-0.4-4.1-1.3-5.3c-0.9-1.2-2.1-1.8-3.8-1.8c-1.7,0-2.9,0.6-3.8,1.8c-0.8,1.2-1.3,3-1.3,5.3v9.3c0,2.4,0.4,4.2,1.3,5.4
			c0.9,1.2,2.1,1.8,3.8,1.8c1.7,0,2.9-0.6,3.8-1.8c0.9-1.2,1.3-3,1.3-5.4V135.2z"/>
		<path class="st2" d="M216.8,156.3v-32.8h9.9c3.4,0,6.1,1.3,8.3,3.8s3.3,5.8,3.3,9.8v5.5c0,4-1.1,7.3-3.3,9.8s-5,3.8-8.3,3.8H216.8
			z M223.2,128.6v22.6h3.1c1.8,0,3.2-0.8,4.1-2.3c1-1.6,1.5-3.6,1.5-6.2v-5.6c0-2.6-0.5-4.6-1.5-6.2c-1-1.5-2.3-2.3-4.1-2.3H223.2z"
			/>
		<path class="st2" d="M260.1,141.9h-11v9.3H262v5.1h-19.4v-32.8H262v5.1h-12.9v8.2h11V141.9z"/>
		<path class="st2" d="M271.8,143.2v13h-6.4v-32.7h10.7c3.2,0,5.8,0.9,7.6,2.6c1.8,1.7,2.8,4.1,2.8,7.1c0,1.7-0.4,3.2-1.1,4.4
			c-0.8,1.2-1.9,2.2-3.4,3c1.7,0.6,2.9,1.5,3.6,2.8c0.7,1.3,1.1,3,1.1,5v2.3c0,0.9,0.1,1.9,0.3,2.9c0.2,1,0.6,1.8,1.1,2.2v0.5h-6.6
			c-0.5-0.5-0.9-1.3-1-2.3c-0.1-1.1-0.2-2.2-0.2-3.3v-2.2c0-1.6-0.3-2.9-1-3.8s-1.6-1.4-2.9-1.4H271.8z M271.8,138.1h4.3
			c1.3,0,2.3-0.4,3-1.2c0.7-0.8,1-1.9,1-3.4c0-1.5-0.3-2.7-1-3.6c-0.7-0.9-1.7-1.3-2.9-1.3h-4.3V138.1z"/>
		<path class="st2" d="M295.4,142.7v13.6h-2.7v-32.8h9.7c2.9,0,5.1,0.9,6.7,2.6s2.4,4.1,2.4,7c0,2.9-0.8,5.2-2.4,7
			c-1.6,1.7-3.8,2.6-6.7,2.6H295.4z M295.4,140.3h7c2.1,0,3.7-0.7,4.7-2.1c1.1-1.4,1.6-3.1,1.6-5.1c0-2.1-0.5-3.8-1.6-5.2
			c-1.1-1.4-2.6-2.1-4.7-2.1h-7V140.3z"/>
		<path class="st2" d="M315,142.3c0-3.2,0.8-5.7,2.4-7.8s3.8-3.1,6.5-3.1s4.9,1,6.5,3c1.6,2,2.4,4.6,2.4,7.8v3.6
			c0,3.2-0.8,5.8-2.4,7.8c-1.6,2-3.8,3-6.5,3c-2.7,0-4.9-1-6.5-3c-1.6-2-2.4-4.6-2.4-7.8V142.3z M317.7,145.9c0,2.4,0.5,4.5,1.6,6.1
			c1.1,1.6,2.6,2.4,4.6,2.4c2,0,3.5-0.8,4.6-2.4c1.1-1.6,1.6-3.7,1.6-6.1v-3.6c0-2.4-0.5-4.4-1.6-6c-1.1-1.6-2.6-2.4-4.6-2.4
			c-2,0-3.5,0.8-4.6,2.4c-1.1,1.6-1.6,3.6-1.6,6V145.9z"/>
		<path class="st2" d="M340.9,125h-2.7v-3.8h2.7V125z M340.9,156.3h-2.7v-24.4h2.7V156.3z"/>
		<path class="st2" d="M349.7,131.9l0.2,4c0.6-1.4,1.5-2.5,2.6-3.3c1.1-0.8,2.3-1.2,3.8-1.2c2.2,0,3.8,0.8,5,2.4
			c1.2,1.6,1.7,4.1,1.7,7.5v14.9h-2.7v-14.8c0-2.8-0.4-4.7-1.2-5.9c-0.8-1.1-2-1.7-3.5-1.7c-1.4,0-2.5,0.5-3.5,1.4
			c-0.9,0.9-1.6,2.1-2.1,3.6v17.4h-2.7v-24.4H349.7z"/>
		<path class="st2" d="M373.1,125.7v6.2h4.2v2.3h-4.2V150c0,1.6,0.2,2.7,0.7,3.3c0.5,0.7,1,1,1.8,1c0.4,0,0.7,0,1.1-0.1
			c0.3,0,0.7-0.1,1.2-0.2l0.4,2.1c-0.4,0.2-0.8,0.3-1.4,0.4c-0.6,0.1-1.2,0.2-1.7,0.2c-1.4,0-2.6-0.5-3.4-1.6
			c-0.8-1.1-1.2-2.8-1.2-5.1v-15.8H367v-2.3h3.4v-6.2H373.1z"/>
	</g>
</g>
</svg>
