<svg id="Ebene_1" data-name="Ebene 1" xmlns="http://www.w3.org/2000/svg" viewBox="0 0 493 207"><defs><style>.cls-1,.cls-3{fill:#1b2431;}.cls-1{stroke:#7fffd4;stroke-miterlimit:10;stroke-width:4px;}.cls-2{fill:#7fffd4;}</style></defs><path class="cls-1" d="M83.13,14.76a61.49,61.49,0,0,0-61,61.49c0,45.78,53,100.55,61,108.51,8-8,61-62.73,61-108.51A61.5,61.5,0,0,0,83.13,14.76Z"/><circle class="cls-2" cx="83.13" cy="75.75" r="49"/><path class="cls-1" d="M96.87,112.35c-3,1.83-5.71,2.58-8.08,2.25s-4.79-1.73-7.25-4.19l-8.72-8.71a13.69,13.69,0,0,0-3.32-2.61,4.21,4.21,0,0,0-3-.28,10.7,10.7,0,0,0-3.88,2.39l-5.14-5.13a10.58,10.58,0,0,0,2.39-3.89,4.18,4.18,0,0,0-.27-3A13.9,13.9,0,0,0,57,85.87l-8.72-8.71c-2.49-2.5-3.9-4.92-4.21-7.28s.44-5,2.28-8.06a70.18,70.18,0,0,1,9.42-11.39l6.95,7a22.24,22.24,0,0,0-3.08,4.19,2.26,2.26,0,0,0,.42,2.85l9.78,9.78q3.48,3.48,3,7.11a17.47,17.47,0,0,1-3.28,7.77,17.68,17.68,0,0,1,7.77-3.28q3.65-.42,7.06,3l9.78,9.78a2.32,2.32,0,0,0,2.94.44,21.39,21.39,0,0,0,4.1-3.09l7,7A71.7,71.7,0,0,1,96.87,112.35Z"/><path class="cls-1" d="M103.9,93.29A20,20,0,0,0,107,89.22a2.31,2.31,0,0,0-.47-2.9L96.7,76.54q-3.42-3.44-3-7.12a17,17,0,0,1,3.34-7.78A16.79,16.79,0,0,1,89.24,65q-3.66.4-7.13-3.07l-9.79-9.78a2.25,2.25,0,0,0-2.84-.42,21.75,21.75,0,0,0-4.13,3l-6.95-7a70.74,70.74,0,0,1,11.36-9.38q4.48-2.71,8-2.25c2.36.32,4.79,1.72,7.28,4.22l8.72,8.71q2.77,2.79,4.86,3t5.33-2.5l5.13,5.13c-1.81,2.18-2.65,4-2.5,5.34s1.15,3,3,4.86l8.72,8.71c2.46,2.46,3.85,4.88,4.19,7.25s-.41,5.06-2.22,8.05a69.88,69.88,0,0,1-9.38,11.36Z"/><path class="cls-3" d="M179.55,93.89v22H167.07V54.63h22.16q9.56,0,15.07,5.42t5.52,14.21q0,8.82-5.54,14.23t-15.05,5.4Zm0-9.55h9.68a7.11,7.11,0,0,0,6.09-2.83,11.68,11.68,0,0,0,2.1-7.17,12.11,12.11,0,0,0-2.08-7.27,7,7,0,0,0-6.11-2.89h-9.68Z"/><path class="cls-3" d="M251.68,89H230.27v17.33h25.18v9.56H217.79V54.63h37.57v9.55H230.27V79.46h21.41Z"/><path class="cls-3" d="M274.41,93.89v22H261.93V54.63h22.16q9.56,0,15.07,5.42t5.52,14.21q0,8.82-5.54,14.23t-15.05,5.4Zm0-9.55h9.68a7.11,7.11,0,0,0,6.09-2.83,11.68,11.68,0,0,0,2.1-7.17,12.11,12.11,0,0,0-2.08-7.27,7,7,0,0,0-6.11-2.89h-9.68Z"/><path class="cls-3" d="M325.7,115.9H313.3V54.63h12.4Z"/><path class="cls-3" d="M364.37,99.91a8,8,0,0,0-1.93-5.66c-1.28-1.39-3.55-2.76-6.79-4.11q-9.93-3.31-14.91-7.55t-5-11.84a15.13,15.13,0,0,1,5.78-12.27q5.79-4.74,14.76-4.73T371.11,59a16.82,16.82,0,0,1,5.52,13.31l-.09.26H364.46a10.25,10.25,0,0,0-2.19-6.82,8.72,8.72,0,0,0-12-.44,7.53,7.53,0,0,0-2.08,5.45,6.21,6.21,0,0,0,2.32,5,32.86,32.86,0,0,0,8.06,4.36q9.06,2.94,13.64,7.47t4.58,12.22q0,8-5.52,12.46t-14.67,4.5a25.26,25.26,0,0,1-15.79-5.11q-6.68-5.11-6.46-14.67l.09-.25h12.13q0,5.69,2.49,8.16t7.54,2.49c2.62,0,4.57-.68,5.84-2A7.66,7.66,0,0,0,364.37,99.91Z"/><path class="cls-3" d="M422.13,64.18H407.77V115.9H395.33V64.18H381.05V54.63h41.08Z"/><path class="cls-3" d="M469.87,93.89q0,10.77-6.09,16.83t-16.2,6.06q-10.12,0-16.16-6.06t-6-16.83V76.72q0-10.73,6-16.85t16.12-6.12q10.06,0,16.2,6.12t6.13,16.85Zm-12.39-17.3q0-6.59-2.54-9.94a8.73,8.73,0,0,0-7.4-3.35c-3.27,0-5.73,1.11-7.36,3.33s-2.45,5.54-2.45,10v17.3q0,6.67,2.49,10a9.78,9.78,0,0,0,14.72,0q2.54-3.33,2.54-10Z"/><path class="cls-3" d="M186.59,145.72l.07.13q0,5.4-2.57,8.15t-7.69,2.75a10.84,10.84,0,0,1-8.13-3.12c-2-2.08-3-5-3-8.84V135c0-3.79,1-6.74,2.94-8.83A10.27,10.27,0,0,1,176,123q5.22,0,7.89,2.79t2.75,8.26l-.07.14h-6.16c.09-2.16-.2-3.71-.88-4.66a4,4,0,0,0-3.53-1.42,3.75,3.75,0,0,0-3.31,1.69,9.14,9.14,0,0,0-1.15,5.11v9.85a8.8,8.8,0,0,0,1.23,5.16,4.16,4.16,0,0,0,3.59,1.69,3.64,3.64,0,0,0,3.23-1.34c.6-.89.87-2.42.8-4.58Z"/><path class="cls-3" d="M212.61,144.5q0,5.76-3.13,9a12.29,12.29,0,0,1-16.63,0q-3.1-3.25-3.11-9v-9.18q0-5.74,3.11-9a10.88,10.88,0,0,1,8.28-3.27,11,11,0,0,1,8.33,3.27q3.15,3.29,3.15,9Zm-6.37-9.25a9,9,0,0,0-1.3-5.32,4.43,4.43,0,0,0-3.81-1.79,4.32,4.32,0,0,0-3.78,1.78,9.26,9.26,0,0,0-1.26,5.33v9.25a9.18,9.18,0,0,0,1.28,5.35,4.9,4.9,0,0,0,7.57,0,9,9,0,0,0,1.3-5.35Z"/><path class="cls-3" d="M216.77,156.27V123.5h9.91a10.5,10.5,0,0,1,8.33,3.82,14.51,14.51,0,0,1,3.28,9.82v5.52a14.48,14.48,0,0,1-3.28,9.81,10.52,10.52,0,0,1-8.33,3.8Zm6.42-27.66v22.55h3.13a4.6,4.6,0,0,0,4.13-2.33,11.54,11.54,0,0,0,1.45-6.18v-5.57a11.47,11.47,0,0,0-1.45-6.15,4.63,4.63,0,0,0-4.13-2.32Z"/><path class="cls-3" d="M260.1,141.89h-11v9.27H262v5.11H242.68V123.5H262v5.11H249.1v8.17h11Z"/><path class="cls-3" d="M271.78,143.24v13h-6.39V123.53h10.69a10.76,10.76,0,0,1,7.6,2.55,9.19,9.19,0,0,1,2.76,7.1,8.26,8.26,0,0,1-1.15,4.42,8.06,8.06,0,0,1-3.36,3,6.28,6.28,0,0,1,3.64,2.84,10,10,0,0,1,1.11,4.95v2.32a14.51,14.51,0,0,0,.32,2.89,4,4,0,0,0,1.1,2.24v.47h-6.62a3.75,3.75,0,0,1-1-2.34,27.63,27.63,0,0,1-.2-3.31V148.4a6.28,6.28,0,0,0-1-3.81,3.36,3.36,0,0,0-2.87-1.35Zm0-5.11h4.28a3.68,3.68,0,0,0,3-1.19,5.09,5.09,0,0,0,1-3.4,5.74,5.74,0,0,0-1-3.58,3.49,3.49,0,0,0-2.95-1.33h-4.3Z"/><path class="cls-3" d="M295.44,142.7v13.57h-2.7V123.5h9.7a8.47,8.47,0,0,1,6.66,2.64,11.47,11.47,0,0,1,0,13.94,8.5,8.5,0,0,1-6.66,2.62Zm0-2.36h7a5.61,5.61,0,0,0,4.73-2.06,9.28,9.28,0,0,0,0-10.33,5.58,5.58,0,0,0-4.73-2.06h-7Z"/><path class="cls-3" d="M315,142.32a12.15,12.15,0,0,1,2.43-7.79,8.51,8.51,0,0,1,13.06,0,12.07,12.07,0,0,1,2.45,7.8v3.58a12.12,12.12,0,0,1-2.43,7.82,8.57,8.57,0,0,1-13.08,0A12.12,12.12,0,0,1,315,145.9Zm2.72,3.6a10.75,10.75,0,0,0,1.62,6.09,5.58,5.58,0,0,0,9.23,0,10.61,10.61,0,0,0,1.64-6.08v-3.58a10.59,10.59,0,0,0-1.64-6,5.58,5.58,0,0,0-9.23,0,10.74,10.74,0,0,0-1.62,6Z"/><path class="cls-3" d="M340.93,125H338.2v-3.83h2.73Zm0,31.28H338.2V131.92h2.73Z"/><path class="cls-3" d="M349.73,131.92l.22,4a8.15,8.15,0,0,1,2.58-3.31,6.23,6.23,0,0,1,3.77-1.17,5.81,5.81,0,0,1,5,2.42q1.74,2.42,1.74,7.53v14.85h-2.72V141.44c0-2.77-.41-4.73-1.22-5.85a4.07,4.07,0,0,0-3.53-1.69,4.81,4.81,0,0,0-3.47,1.36A8.37,8.37,0,0,0,350,138.9v17.37h-2.7V131.92Z"/><path class="cls-3" d="M373.11,125.71v6.21h4.23v2.3h-4.23V150a6.19,6.19,0,0,0,.68,3.35,2.06,2.06,0,0,0,1.78,1,7.22,7.22,0,0,0,1.05-.07c.35,0,.74-.11,1.17-.2l.36,2.07a5.79,5.79,0,0,1-1.4.44,9.35,9.35,0,0,1-1.75.17,4,4,0,0,1-3.38-1.62q-1.23-1.62-1.23-5.13V134.22H367v-2.3h3.38v-6.21Z"/></svg>