<svg id="Ebene_1" data-name="Ebene 1" xmlns="http://www.w3.org/2000/svg" viewBox="0 0 208 207"><defs><style>.cls-1{fill:#1b2431;stroke:#7fffd4;stroke-miterlimit:10;stroke-width:4px;}.cls-2{fill:#7fffd4;}</style></defs><path class="cls-1" d="M104,14.76A61.5,61.5,0,0,0,43,76.25C43,122,96,176.8,104,184.76c8-8,61-62.73,61-108.51A61.5,61.5,0,0,0,104,14.76Z"/><circle class="cls-2" cx="104" cy="75.75" r="49"/><path class="cls-1" d="M117.58,112.35c-3,1.83-5.71,2.58-8.08,2.25s-4.79-1.73-7.25-4.19l-8.72-8.71a13.69,13.69,0,0,0-3.32-2.61,4.21,4.21,0,0,0-3-.28,10.7,10.7,0,0,0-3.88,2.39L78.2,96.07a10.58,10.58,0,0,0,2.39-3.89,4.18,4.18,0,0,0-.27-3,13.9,13.9,0,0,0-2.61-3.33L69,77.16c-2.49-2.5-3.9-4.92-4.22-7.28s.45-5,2.29-8.06a70.18,70.18,0,0,1,9.42-11.39l7,7a22.24,22.24,0,0,0-3.08,4.19,2.26,2.26,0,0,0,.42,2.85l9.78,9.78q3.48,3.48,3,7.11a17.47,17.47,0,0,1-3.28,7.77,17.68,17.68,0,0,1,7.77-3.28q3.64-.42,7.06,3l9.78,9.78a2.32,2.32,0,0,0,2.94.44,21.39,21.39,0,0,0,4.1-3.09l7,7A71.7,71.7,0,0,1,117.58,112.35Z"/><path class="cls-1" d="M124.61,93.29a20,20,0,0,0,3.06-4.07,2.31,2.31,0,0,0-.47-2.9l-9.79-9.78q-3.42-3.44-3-7.12a17,17,0,0,1,3.34-7.78A16.79,16.79,0,0,1,110,65q-3.66.4-7.13-3.07L93,52.16a2.25,2.25,0,0,0-2.84-.42,21.75,21.75,0,0,0-4.13,3l-7-7a70.74,70.74,0,0,1,11.36-9.38q4.48-2.71,8-2.25c2.36.32,4.79,1.72,7.28,4.22l8.72,8.71q2.78,2.79,4.85,3t5.34-2.5l5.13,5.13c-1.81,2.18-2.65,4-2.5,5.34s1.15,3,3,4.86L139,73.63c2.46,2.46,3.85,4.88,4.19,7.25s-.41,5.06-2.22,8.05a69.88,69.88,0,0,1-9.38,11.36Z"/></svg>